STARTFONT 2.1
FONT -Custom-MTASign-Medium-R-Normal--11-110-75-75-C-60-ISO10646-1
SIZE 11 75 75
FONTBOUNDINGBOX 14 15 0 -4
STARTPROPERTIES 2
FONT_ASCENT 11
FONT_DESCENT 4
ENDPROPERTIES
CHARS 78
STARTCHAR c32
ENCODING 32
SWIDTH 500 0
DWIDTH 5 0
BBX 1 1 0 0
BITMAP
00
ENDCHAR
STARTCHAR c33
ENCODING 33
SWIDTH 1500 0
DWIDTH 15 0
BBX 14 13 0 -1
BITMAP
0780
1FE0
3FF0
7CF8
78F8
FCFC
FCFC
FCFC
7CF8
7CF8
3FF0
1FE0
0780
ENDCHAR
STARTCHAR c35
ENCODING 35
SWIDTH 1500 0
DWIDTH 15 0
BBX 14 13 0 -1
BITMAP
0780
1FE0
3FF0
7878
7338
FF3C
FC7C
FF3C
7338
7878
3FF0
1FE0
0780
ENDCHAR
STARTCHAR c36
ENCODING 36
SWIDTH 1500 0
DWIDTH 15 0
BBX 14 13 0 -1
BITMAP
0780
1FE0
3FF0
7E78
7C78
FA7C
F67C
F03C
7E78
7E78
3FF0
1FE0
0780
ENDCHAR
STARTCHAR c37
ENCODING 37
SWIDTH 1500 0
DWIDTH 15 0
BBX 14 13 0 -1
BITMAP
0780
1FE0
3FF0
7038
73F8
F3FC
F03C
FF3C
7338
7878
3FF0
1FE0
0780
ENDCHAR
STARTCHAR c42
ENCODING 42
SWIDTH 1400 0
DWIDTH 14 0
BBX 13 13 0 -1
BITMAP
0200
0700
0F80
18C0
3360
73F0
F0F8
7270
3260
18C0
0F80
0700
0200
ENDCHAR
STARTCHAR c44
ENCODING 44
SWIDTH 400 0
DWIDTH 4 0
BBX 3 4 0 -2
BITMAP
60
60
40
C0
ENDCHAR
STARTCHAR c45
ENCODING 45
SWIDTH 600 0
DWIDTH 6 0
BBX 5 1 0 4
BITMAP
F8
ENDCHAR
STARTCHAR c46
ENCODING 46
SWIDTH 300 0
DWIDTH 3 0
BBX 2 2 0 0
BITMAP
C0
C0
ENDCHAR
STARTCHAR c47
ENCODING 47
SWIDTH 800 0
DWIDTH 8 0
BBX 7 7 0 2
BITMAP
7E
3E
1E
3E
76
E2
C0
ENDCHAR
STARTCHAR c48
ENCODING 48
SWIDTH 700 0
DWIDTH 7 0
BBX 6 11 0 0
BITMAP
78
CC
CC
CC
CC
CC
CC
CC
CC
CC
78
ENDCHAR
STARTCHAR c49
ENCODING 49
SWIDTH 700 0
DWIDTH 7 0
BBX 6 11 0 0
BITMAP
1C
3C
6C
CC
0C
0C
0C
0C
0C
0C
0C
ENDCHAR
STARTCHAR c50
ENCODING 50
SWIDTH 700 0
DWIDTH 7 0
BBX 6 11 0 0
BITMAP
78
FC
CC
0C
0C
18
38
70
E0
FC
FC
ENDCHAR
STARTCHAR c51
ENCODING 51
SWIDTH 700 0
DWIDTH 7 0
BBX 6 11 0 0
BITMAP
78
FC
CC
0C
38
38
0C
0C
CC
FC
78
ENDCHAR
STARTCHAR c52
ENCODING 52
SWIDTH 700 0
DWIDTH 7 0
BBX 6 11 0 0
BITMAP
04
0C
1C
3C
6C
CC
FC
FC
0C
0C
0C
ENDCHAR
STARTCHAR c53
ENCODING 53
SWIDTH 700 0
DWIDTH 7 0
BBX 6 11 0 0
BITMAP
FC
FC
C0
C0
F8
FC
0C
0C
0C
FC
F8
ENDCHAR
STARTCHAR c54
ENCODING 54
SWIDTH 700 0
DWIDTH 7 0
BBX 6 11 0 0
BITMAP
78
FC
CC
C0
F8
FC
CC
CC
CC
FC
78
ENDCHAR
STARTCHAR c55
ENCODING 55
SWIDTH 700 0
DWIDTH 7 0
BBX 6 11 0 0
BITMAP
FC
FC
0C
18
18
30
30
60
60
C0
C0
ENDCHAR
STARTCHAR c56
ENCODING 56
SWIDTH 700 0
DWIDTH 7 0
BBX 6 11 0 0
BITMAP
78
FC
CC
CC
78
78
CC
CC
CC
FC
78
ENDCHAR
STARTCHAR c57
ENCODING 57
SWIDTH 700 0
DWIDTH 7 0
BBX 6 11 0 0
BITMAP
78
FC
CC
CC
CC
FC
7C
0C
CC
FC
78
ENDCHAR
STARTCHAR c58
ENCODING 58
SWIDTH 300 0
DWIDTH 3 0
BBX 2 8 0 0
BITMAP
C0
C0
00
00
00
00
C0
C0
ENDCHAR
STARTCHAR c60
ENCODING 60
SWIDTH 900 0
DWIDTH 9 0
BBX 8 7 0 2
BITMAP
10
30
7F
FF
7F
30
10
ENDCHAR
STARTCHAR c62
ENCODING 62
SWIDTH 900 0
DWIDTH 9 0
BBX 8 7 0 2
BITMAP
08
0C
FE
FF
FE
0C
08
ENDCHAR
STARTCHAR c64
ENCODING 64
SWIDTH 1500 0
DWIDTH 15 0
BBX 14 13 0 -1
BITMAP
0780
1FE0
3FF0
7878
7338
FF3C
FE7C
FCFC
79F8
7038
3FF0
1FE0
0780
ENDCHAR
STARTCHAR c65
ENCODING 65
SWIDTH 1000 0
DWIDTH 10 0
BBX 9 11 0 0
BITMAP
1C00
1C00
1C00
3600
3600
3600
6300
7F00
7F00
C180
C180
ENDCHAR
STARTCHAR c66
ENCODING 66
SWIDTH 700 0
DWIDTH 7 0
BBX 6 11 0 0
BITMAP
F8
FC
CC
CC
F8
F8
CC
CC
CC
FC
F8
ENDCHAR
STARTCHAR c67
ENCODING 67
SWIDTH 900 0
DWIDTH 9 0
BBX 8 11 0 0
BITMAP
3C
7E
67
C2
C0
C0
C0
C2
67
7E
3C
ENDCHAR
STARTCHAR c68
ENCODING 68
SWIDTH 800 0
DWIDTH 8 0
BBX 7 11 0 0
BITMAP
F8
FC
CE
C6
C6
C6
C6
C6
CE
FC
F8
ENDCHAR
STARTCHAR c69
ENCODING 69
SWIDTH 800 0
DWIDTH 8 0
BBX 7 11 0 0
BITMAP
FE
FE
C0
C0
FE
FE
C0
C0
C0
FE
FE
ENDCHAR
STARTCHAR c70
ENCODING 70
SWIDTH 700 0
DWIDTH 7 0
BBX 6 11 0 0
BITMAP
FC
FC
C0
C0
F8
F8
C0
C0
C0
C0
C0
ENDCHAR
STARTCHAR c71
ENCODING 71
SWIDTH 900 0
DWIDTH 9 0
BBX 8 11 0 0
BITMAP
3C
7E
67
C2
C0
C0
CF
CF
66
7E
3C
ENDCHAR
STARTCHAR c72
ENCODING 72
SWIDTH 800 0
DWIDTH 8 0
BBX 7 11 0 0
BITMAP
C6
C6
C6
C6
FE
FE
C6
C6
C6
C6
C6
ENDCHAR
STARTCHAR c73
ENCODING 73
SWIDTH 700 0
DWIDTH 7 0
BBX 6 11 0 0
BITMAP
FC
FC
30
30
30
30
30
30
30
FC
FC
ENDCHAR
STARTCHAR c74
ENCODING 74
SWIDTH 800 0
DWIDTH 8 0
BBX 7 11 0 0
BITMAP
06
06
06
06
06
06
06
06
06
FE
7C
ENDCHAR
STARTCHAR c75
ENCODING 75
SWIDTH 800 0
DWIDTH 8 0
BBX 7 11 0 0
BITMAP
C6
CC
D8
F0
E0
E0
E0
F0
D8
CC
C6
ENDCHAR
STARTCHAR c76
ENCODING 76
SWIDTH 900 0
DWIDTH 9 0
BBX 8 11 0 0
BITMAP
C0
C0
C0
C0
C0
C0
C0
C0
C0
FF
FF
ENDCHAR
STARTCHAR c77
ENCODING 77
SWIDTH 1200 0
DWIDTH 12 0
BBX 11 11 0 0
BITMAP
3060
38E0
3DE0
3FE0
3760
3260
3060
3060
3060
3060
3060
ENDCHAR
STARTCHAR c78
ENCODING 78
SWIDTH 800 0
DWIDTH 8 0
BBX 7 11 0 0
BITMAP
C6
E6
F6
FE
DE
CE
C6
C6
C6
C6
C6
ENDCHAR
STARTCHAR c79
ENCODING 79
SWIDTH 900 0
DWIDTH 9 0
BBX 8 11 0 0
BITMAP
3C
7E
66
C3
C3
C3
C3
C3
66
7E
3C
ENDCHAR
STARTCHAR c80
ENCODING 80
SWIDTH 700 0
DWIDTH 7 0
BBX 6 11 0 0
BITMAP
F8
FC
CC
CC
FC
F8
C0
C0
C0
C0
C0
ENDCHAR
STARTCHAR c81
ENCODING 81
SWIDTH 1100 0
DWIDTH 11 0
BBX 10 12 0 -1
BITMAP
1F00
3F80
3180
3180
3180
3180
3180
3580
3300
3F80
1EC0
0040
ENDCHAR
STARTCHAR c82
ENCODING 82
SWIDTH 800 0
DWIDTH 8 0
BBX 7 11 0 0
BITMAP
FC
FE
C6
C6
FE
FC
CC
C6
C6
C6
C6
ENDCHAR
STARTCHAR c83
ENCODING 83
SWIDTH 800 0
DWIDTH 8 0
BBX 7 11 0 0
BITMAP
7C
FE
C6
C6
F0
7C
0E
C6
C6
FE
7C
ENDCHAR
STARTCHAR c84
ENCODING 84
SWIDTH 900 0
DWIDTH 9 0
BBX 8 11 0 0
BITMAP
FF
FF
18
18
18
18
18
18
18
18
18
ENDCHAR
STARTCHAR c85
ENCODING 85
SWIDTH 800 0
DWIDTH 8 0
BBX 7 11 0 0
BITMAP
C6
C6
C6
C6
C6
C6
C6
C6
C6
FE
7C
ENDCHAR
STARTCHAR c86
ENCODING 86
SWIDTH 1000 0
DWIDTH 10 0
BBX 9 11 0 0
BITMAP
C180
C180
6300
6300
6300
3600
3600
3600
1C00
1C00
1C00
ENDCHAR
STARTCHAR c87
ENCODING 87
SWIDTH 900 0
DWIDTH 9 0
BBX 8 11 0 0
BITMAP
C3
C3
C3
C3
C3
C3
DB
FF
FF
E7
C3
ENDCHAR
STARTCHAR c88
ENCODING 88
SWIDTH 1100 0
DWIDTH 11 0
BBX 10 11 0 0
BITMAP
30C0
30C0
1980
1980
0F00
0600
0F00
1980
1980
30C0
30C0
ENDCHAR
STARTCHAR c89
ENCODING 89
SWIDTH 1100 0
DWIDTH 11 0
BBX 10 11 0 0
BITMAP
30C0
30C0
1980
1980
0F00
0F00
0600
0600
0600
0600
0600
ENDCHAR
STARTCHAR c90
ENCODING 90
SWIDTH 1000 0
DWIDTH 10 0
BBX 9 11 0 0
BITMAP
3F80
3F80
0300
0600
0600
0C00
0C00
1800
1800
3F80
3F80
ENDCHAR
STARTCHAR c92
ENCODING 92
SWIDTH 800 0
DWIDTH 8 0
BBX 7 7 0 2
BITMAP
FC
F8
F0
F8
DC
8E
06
ENDCHAR
STARTCHAR c94
ENCODING 94
SWIDTH 1500 0
DWIDTH 15 0
BBX 14 13 0 -1
BITMAP
0780
1FE0
3FF0
7878
73F8
F3FC
F07C
F33C
7338
7878
3FF0
1FE0
0780
ENDCHAR
STARTCHAR c97
ENCODING 97
SWIDTH 700 0
DWIDTH 7 0
BBX 6 8 0 0
BITMAP
78
FC
CC
3C
FC
CC
FC
6C
ENDCHAR
STARTCHAR c98
ENCODING 98
SWIDTH 700 0
DWIDTH 7 0
BBX 6 11 0 0
BITMAP
C0
C0
C0
F8
FC
CC
CC
CC
CC
FC
F8
ENDCHAR
STARTCHAR c99
ENCODING 99
SWIDTH 700 0
DWIDTH 7 0
BBX 6 8 0 0
BITMAP
38
7C
CC
C0
C0
CC
7C
38
ENDCHAR
STARTCHAR c100
ENCODING 100
SWIDTH 700 0
DWIDTH 7 0
BBX 6 11 0 0
BITMAP
0C
0C
0C
7C
FC
CC
CC
CC
CC
FC
7C
ENDCHAR
STARTCHAR c101
ENCODING 101
SWIDTH 700 0
DWIDTH 7 0
BBX 6 8 0 0
BITMAP
78
FC
CC
FC
C0
CC
FC
78
ENDCHAR
STARTCHAR c102
ENCODING 102
SWIDTH 500 0
DWIDTH 5 0
BBX 4 11 0 0
BITMAP
30
70
60
F0
F0
60
60
60
60
60
60
ENDCHAR
STARTCHAR c103
ENCODING 103
SWIDTH 700 0
DWIDTH 7 0
BBX 6 11 0 -3
BITMAP
6C
FC
CC
CC
CC
CC
FC
6C
0C
CC
78
ENDCHAR
STARTCHAR c104
ENCODING 104
SWIDTH 700 0
DWIDTH 7 0
BBX 6 11 0 0
BITMAP
C0
C0
C0
D8
FC
CC
CC
CC
CC
CC
CC
ENDCHAR
STARTCHAR c105
ENCODING 105
SWIDTH 500 0
DWIDTH 5 0
BBX 4 11 0 0
BITMAP
60
60
00
60
60
60
60
60
60
F0
F0
ENDCHAR
STARTCHAR c106
ENCODING 106
SWIDTH 700 0
DWIDTH 7 0
BBX 6 14 0 -3
BITMAP
0C
0C
00
0C
0C
0C
0C
0C
0C
0C
0C
0C
CC
78
ENDCHAR
STARTCHAR c107
ENCODING 107
SWIDTH 700 0
DWIDTH 7 0
BBX 6 11 0 0
BITMAP
C0
C0
C0
CC
D8
F0
F8
D8
D8
CC
CC
ENDCHAR
STARTCHAR c108
ENCODING 108
SWIDTH 300 0
DWIDTH 3 0
BBX 2 11 0 0
BITMAP
C0
C0
C0
C0
C0
C0
C0
C0
C0
C0
C0
ENDCHAR
STARTCHAR c109
ENCODING 109
SWIDTH 1100 0
DWIDTH 11 0
BBX 10 8 0 0
BITMAP
FB80
FFC0
CCC0
CCC0
CCC0
CCC0
CCC0
CCC0
ENDCHAR
STARTCHAR c110
ENCODING 110
SWIDTH 700 0
DWIDTH 7 0
BBX 6 8 0 0
BITMAP
F8
FC
CC
CC
CC
CC
CC
CC
ENDCHAR
STARTCHAR c111
ENCODING 111
SWIDTH 700 0
DWIDTH 7 0
BBX 6 8 0 0
BITMAP
78
FC
CC
CC
CC
CC
FC
78
ENDCHAR
STARTCHAR c112
ENCODING 112
SWIDTH 600 0
DWIDTH 6 0
BBX 5 11 0 -3
BITMAP
F0
F8
D8
D8
D8
D8
F8
F0
C0
C0
C0
ENDCHAR
STARTCHAR c113
ENCODING 113
SWIDTH 700 0
DWIDTH 7 0
BBX 6 11 0 -3
BITMAP
7C
FC
CC
CC
CC
CC
FC
7C
0C
0C
0C
ENDCHAR
STARTCHAR c114
ENCODING 114
SWIDTH 600 0
DWIDTH 6 0
BBX 5 8 0 0
BITMAP
70
F8
C0
C0
C0
C0
C0
C0
ENDCHAR
STARTCHAR c115
ENCODING 115
SWIDTH 700 0
DWIDTH 7 0
BBX 6 8 0 0
BITMAP
78
FC
C0
F8
7C
0C
FC
F8
ENDCHAR
STARTCHAR c116
ENCODING 116
SWIDTH 500 0
DWIDTH 5 0
BBX 4 11 0 0
BITMAP
60
60
F0
F0
60
60
60
60
60
70
70
ENDCHAR
STARTCHAR c117
ENCODING 117
SWIDTH 700 0
DWIDTH 7 0
BBX 6 8 0 0
BITMAP
CC
CC
CC
CC
CC
CC
FC
7C
ENDCHAR
STARTCHAR c118
ENCODING 118
SWIDTH 900 0
DWIDTH 9 0
BBX 8 8 0 0
BITMAP
C3
C3
C3
66
7E
3C
18
18
ENDCHAR
STARTCHAR c119
ENCODING 119
SWIDTH 1200 0
DWIDTH 12 0
BBX 11 8 0 0
BITMAP
C060
C060
CE60
CE60
5B40
7BC0
71C0
71C0
ENDCHAR
STARTCHAR c120
ENCODING 120
SWIDTH 800 0
DWIDTH 8 0
BBX 7 8 0 0
BITMAP
C6
C6
6C
38
38
6C
C6
C6
ENDCHAR
STARTCHAR c121
ENCODING 121
SWIDTH 900 0
DWIDTH 9 0
BBX 8 10 0 -2
BITMAP
C3
C3
66
66
3C
3C
18
18
78
70
ENDCHAR
STARTCHAR c122
ENCODING 122
SWIDTH 700 0
DWIDTH 7 0
BBX 6 8 0 0
BITMAP
FC
FC
1C
38
70
E0
FC
FC
ENDCHAR
ENDFONT
